<svg viewBox="0 0 48.20404 21.800009" xmlns="http://www.w3.org/2000/svg"><path fill="#fff" d="m 43.68,10.9 -5.6,-1.5 -1,-0.4 -25.7,0.2 V 21.7 l 32.3,0.1 z" /><path fill="#f48120" d="m 33.20404,20.400008 a 2.85546,2.85546 0 0 0 -0.3,-2.6 3.09428,3.09428 0 0 0 -2.1,-1.1 l -17.4,-0.2 c -0.1,0 -0.2,-0.1 -0.3,-0.1 a 0.1875,0.1875 0 0 1 0,-0.3 c 0.1,-0.2 0.2,-0.3 0.4,-0.3 l 17.5,-0.2 a 6.29223,6.29223 0 0 0 5.1,-3.8 l 1,-2.5999997 c 0,-0.1 0.1,-0.2 0,-0.3 a 11.39646,11.39646 0 0 0 -21.9,-1.2 5.45941,5.45941 0 0 0 -3.6,-1 5.20936,5.20936 0 0 0 -4.6000003,4.5999997 5.46262,5.46262 0 0 0 0.1,1.8 7.30177,7.30177 0 0 0 -7.10000001,7.3 4.102,4.102 0 0 0 0.1,1.1 0.3193,0.3193 0 0 0 0.3,0.3 H 32.50404 c 0.2,0 0.4,-0.1 0.4,-0.3 z" /><path fill="#faad3f" d="m 38.70404,9.3973449 h -0.5 c -0.1,0 -0.2,0.1 -0.3,0.2 l -0.7,2.4000001 a 2.85546,2.85546 0 0 0 0.3,2.6 3.09428,3.09428 0 0 0 2.1,1.1 l 3.7,0.2 c 0.1,0 0.2,0.1 0.3,0.1 a 0.1875,0.1875 0 0 1 0,0.3 c -0.1,0.2 -0.2,0.3 -0.4,0.3 l -3.8,0.2 a 6.29223,6.29223 0 0 0 -5.1,3.8 l -0.2,0.9 c -0.1,0.1 0,0.3 0.2,0.3 h 13.2 a 0.26517,0.26517 0 0 0 0.3,-0.3 10.87184,10.87184 0 0 0 0.4,-2.6 9.56045,9.56045 0 0 0 -9.5,-9.5000001" /></svg>