<?xml version="1.0" encoding="UTF-8" standalone="no"?>
<svg
   fill="none"
   height="35"
   viewBox="0 0 35 35"
   width="35"
   version="1.1"
   id="svg17"
   sodipodi:docname="deta_logo.svg"
   inkscape:version="1.2.1 (9c6d41e410, 2022-07-14)"
   xmlns:inkscape="http://www.inkscape.org/namespaces/inkscape"
   xmlns:sodipodi="http://sodipodi.sourceforge.net/DTD/sodipodi-0.dtd"
   xmlns="http://www.w3.org/2000/svg"
   xmlns:svg="http://www.w3.org/2000/svg">
  <defs
     id="defs21" />
  <sodipodi:namedview
     id="namedview19"
     pagecolor="#ffffff"
     bordercolor="#000000"
     borderopacity="0.25"
     inkscape:showpageshadow="2"
     inkscape:pageopacity="0.0"
     inkscape:pagecheckerboard="0"
     inkscape:deskcolor="#d1d1d1"
     showgrid="false"
     inkscape:zoom="5.9545455"
     inkscape:cx="110"
     inkscape:cy="17.717557"
     inkscape:window-width="1920"
     inkscape:window-height="991"
     inkscape:window-x="-9"
     inkscape:window-y="-9"
     inkscape:window-maximized="1"
     inkscape:current-layer="svg17" />
  <clipPath
     id="a">
    <path
       d="m0 0h123v35h-123z"
       id="path2" />
  </clipPath>
  <g
     clip-path="url(#a)"
     id="g13">
    <path
       d="m17.5001 0c9.6649 0 17.4999 7.83502 17.4999 17.5 0 9.665-7.835 17.5-17.4999 17.5-9.66508 0-17.5001-7.835-17.5001-17.5 0-9.66498 7.83502-17.5 17.5001-17.5z"
       fill="#f73b95"
       id="path5" />
    <path
       d="m17.5417 3.41699c7.824 0 14.1666 6.34263 14.1666 14.16671 0 7.824-6.3426 14.1666-14.1666 14.1666-7.82403 0-14.1667-6.3426-14.1667-14.1666 0-7.82408 6.34267-14.16671 14.1667-14.16671z"
       fill="#bd399c"
       id="path7" />
    <path
       d="m17.5416 7.16699c5.7529 0 10.4166 4.66361 10.4166 10.41671 0 5.753-4.6637 10.4166-10.4166 10.4166-5.753 0-10.4166-4.6636-10.4166-10.4166 0-5.7531 4.6636-10.41671 10.4166-10.41671z"
       fill="#93388e"
       id="path9" />
    <path
       d="m17.4583 10.333c3.9119 0 7.0833 3.1713 7.0833 7.0833 0 3.9119-3.1714 7.0833-7.0833 7.0833s-7.0833-3.1714-7.0833-7.0833c0-3.912 3.1714-7.0833 7.0833-7.0833z"
       fill="#6030a2"
       id="path11" />
  </g>
</svg>
