<svg fill="none" height="35" width="35" xmlns="http://www.w3.org/2000/svg"><clipPath id="a"><path d="M0 0h123v35H0z"/></clipPath><g clip-path="url(#a)"><path d="M17.5 0C27.165 0 35 7.835 35 17.5S27.165 35 17.5 35 0 27.165 0 17.5 7.835 0 17.5 0z" fill="#f73b95"/><path d="M17.542 3.417c7.824 0 14.166 6.343 14.166 14.167S25.366 31.75 17.542 31.75c-7.824 0-14.167-6.342-14.167-14.166 0-7.824 6.343-14.167 14.167-14.167z" fill="#bd399c"/><path d="M17.542 7.167c5.752 0 10.416 4.664 10.416 10.417S23.294 28 17.542 28c-5.753 0-10.417-4.663-10.417-10.416S11.789 7.167 17.542 7.167z" fill="#93388e"/><path d="M17.458 10.333a7.083 7.083 0 1 1 0 14.167 7.083 7.083 0 0 1 0-14.167z" fill="#6030a2"/></g></svg>