<svg viewBox="0 0 71 71" fill="none" xmlns="http://www.w3.org/2000/svg"><path d="m 60.1054,12.9281 c -4.6031,-2.1131 -9.461,-3.62004 -14.452,-4.48298 -0.0932,-0.01741 -0.1871,0.02693 -0.233,0.11 -0.6617,1.20128 -1.2625,2.43518 -1.8,3.69698 -5.456,-0.817 -10.886,-0.817 -16.23,0 -0.485,-1.164 -1.201,-2.58698 -1.828,-3.69698 -0.0475,-0.08124 -0.14,-0.12494 -0.233,-0.11 -4.991,0.86122 -9.8488,2.36818 -14.451,4.48298 -0.0393,0.0169 -0.0725,0.0455 -0.095,0.082 -9.20496,13.75 -11.72696,27.164 -10.48996,40.41 0.006998,0.066 0.040578,0.1263 0.093,0.167 6.073,4.46 11.95496,7.167 17.72896,8.962 0.092,0.0273 0.1913,-0.0054 0.249,-0.082 1.3691,-1.8636 2.5822,-3.837 3.627,-5.9 0.0288,-0.0572 0.0318,-0.1239 0.0083,-0.1835 -0.0235,-0.0595 -0.0712,-0.1063 -0.1313,-0.1285 -1.9131,-0.7323 -3.7653,-1.615 -5.539,-2.64 -0.0654,-0.0386 -0.1073,-0.1073 -0.1117,-0.1831 -0.0045,-0.0759 0.0292,-0.1489 0.0897,-0.1949 0.372,-0.279 0.744,-0.569 1.1,-0.862 0.0648,-0.0529 0.1539,-0.0645 0.23,-0.03 11.619,5.304 24.198,5.304 35.68,0 0.0764,-0.0368 0.1671,-0.0263 0.233,0.027 0.356,0.293 0.728,0.586 1.103,0.865 0.0608,0.0456 0.0948,0.1185 0.0908,0.1943 -0.004,0.0759 -0.0456,0.1448 -0.1108,0.1837 -1.7691,1.0334 -3.6223,1.9156 -5.54,2.637 -0.06,0.0231 -0.1075,0.0705 -0.1306,0.1306 -0.0231,0.06 -0.0196,0.1271 0.0096,0.1844 1.0622,2.0516 2.2735,4.0226 3.624,5.897 0.0564,0.0786 0.1566,0.1124 0.249,0.084 5.801,-1.794 11.684,-4.502 17.757,-8.961 0.0529,-0.0389 0.0864,-0.0986 0.092,-0.164 1.48,-15.315 -2.48,-28.618 -10.497,-40.412 -0.0199,-0.0382 -0.0529,-0.068 -0.093,-0.084 z m -36.38,32.427 c -3.497,0 -6.38,-3.211 -6.38,-7.156 0,-3.944 2.827,-7.156 6.38,-7.156 3.583,0 6.438,3.24 6.382,7.156 0,3.945 -2.827,7.156 -6.381,7.156 z m 23.593,0 c -3.498,0 -6.38,-3.211 -6.38,-7.156 0,-3.944 2.826,-7.156 6.38,-7.156 3.582,0 6.437,3.24 6.38,7.156 0,3.945 -2.798,7.156 -6.38,7.156 z" fill="#5865f2"/></svg>