<svg width="32" height="32" version="1.1" xmlns="http://www.w3.org/2000/svg"><style>path{fill:#000000;}@media(prefers-color-scheme:dark){path{fill:#ffffff;}}</style><path d="M30 2v28h-3v2h5V0h-5v2z" id="path16143"/><path d="M9.952 10.594v1.544h.044a4.461 4.461 0 0 1 1.487-1.368c.58-.323 1.245-.485 1.993-.485.72 0 1.377.14 1.972.42.595.279 1.047.771 1.355 1.477.338-.5.796-.941 1.377-1.323.58-.383 1.266-.574 2.06-.574.602 0 1.16.074 1.674.22.514.148.954.383 1.322.707.366.323.653.746.859 1.268.205.522.308 1.15.308 1.887V22h-3.127v-6.464c0-.383-.016-.743-.044-1.082a2.302 2.302 0 0 0-.242-.882 1.473 1.473 0 0 0-.584-.596c-.257-.146-.606-.22-1.047-.22-.44 0-.796.085-1.068.253-.272.17-.485.39-.64.662a2.647 2.647 0 0 0-.307.927 7.074 7.074 0 0 0-.078 1.048V22h-3.128v-6.398c0-.338-.008-.673-.022-1.004a2.825 2.825 0 0 0-.188-.916 1.411 1.411 0 0 0-.55-.673c-.258-.168-.636-.253-1.135-.253a2.328 2.328 0 0 0-.584.1 1.94 1.94 0 0 0-.705.374c-.228.184-.422.449-.584.794-.16.346-.242.798-.242 1.357V22H7V10.59z" id="path16145"/><path d="M2 2v28h3v2H0V0h5v2z"/></svg>