<svg xmlns="http://www.w3.org/2000/svg" xmlns:xlink="http://www.w3.org/1999/xlink" version="1.1" id="Logo" x="0px" y="0px" style="enable-background:new 0 0 185.88 185.88;" xml:space="preserve" viewBox="44.62 44.62 85.56 96.64">
<style type="text/css">
	.st0{fill:#FFFFFF;}
	.st1{fill:#CCCCCC;}
	.st2{fill:#A6A6A6;}
</style>
<path class="st2" d="M87.4,141.26l39.04-22.54l-14.97-8.64l-15.3,8.83c-0.54,0.33-1.3-0.1-1.28-0.74c0,0,0-20.99,0-20.99  c0-0.63,0.35-1.19,0.86-1.48l18.18-10.5c0.54-0.33,1.3,0.09,1.28,0.74c0,0,0,17.66,0,17.66l14.97,8.64V67.16L87.4,91.86L87.4,141.26  z"/>
<path class="st0" d="M91.14,44.62v17.29l15.3,8.83c0.55,0.31,0.57,1.17,0,1.48c0,0-18.18,10.5-18.18,10.5c-0.55,0.32-1.2,0.3-1.71,0  l-18.18-10.5c-0.56-0.3-0.57-1.18,0-1.48c0,0,15.29-8.83,15.29-8.83l0-17.29L44.62,67.16l42.78,24.7l42.78-24.7L91.14,44.62z"/>
<path class="st1" d="M78.64,118.91l-15.3-8.83l-14.97,8.64l39.04,22.54l0-49.4l-42.78-24.7v45.08l0-0.21v0.21l14.97-8.64l0-17.66  c-0.01-0.63,0.73-1.08,1.28-0.74c0,0,18.18,10.5,18.18,10.5c0.55,0.32,0.86,0.89,0.86,1.48l0,20.99  C79.93,118.8,79.19,119.25,78.64,118.91z"/>
</svg>