<svg xmlns="http://www.w3.org/2000/svg" style="enable-background:new 0 0 185.88 185.88" xml:space="preserve" viewBox="44.62 44.62 85.56 96.64"><path d="m87.4 141.26 39.04-22.54-14.97-8.64-15.3 8.83c-.54.33-1.3-.1-1.28-.74V97.18c0-.63.35-1.19.86-1.48l18.18-10.5c.54-.33 1.3.09 1.28.74v17.66l14.97 8.64V67.16L87.4 91.86v49.4z" style="fill:#000"/><path d="M91.14 44.62v17.29l15.3 8.83c.55.31.57 1.17 0 1.48l-18.18 10.5c-.55.32-1.2.3-1.71 0l-18.18-10.5c-.56-.3-.57-1.18 0-1.48l15.29-8.83V44.62L44.62 67.16l42.78 24.7 42.78-24.7-39.04-22.54z" style="fill:gray"/><path d="m78.64 118.91-15.3-8.83-14.97 8.64 39.04 22.54v-49.4l-42.78-24.7v45.08-.21.21l14.97-8.64V85.94c-.01-.63.73-1.08 1.28-.74l18.18 10.5c.55.32.86.89.86 1.48v20.99c.01.63-.73 1.08-1.28.74z" style="fill:#4c4c4c"/></svg>